# AST/ASF file generated using VICON BodyLanguage
# -----------------------------------------------
:version 1.10
:name VICON
:units
  mass 1.0
  length 0.45
  angle deg
:documentation
   .ast/.asf automatically generated from VICON data using
   VICON BodyBuilder and BodyLanguage model FoxedUp or BRILLIANT.MOD
:root
   order TX TY TZ RX RY RZ
   axis XYZ
   position 0 0 0  
   orientation 0 0 0 
:bonedata
  begin
     id 1 
     name lhipjoint
     direction 0.645422 -0.672597 0.361999 
     length 2.39934 
     axis 0 0 0  XYZ
  end
  begin
     id 2 
     name lfemur
     direction 0.34202 -0.939693 0  
     length 6.58112  
     axis 0 0 20  XYZ
    dof rx ry rz
    limits (-160.0 20.0)
           (-70.0 70.0)
           (-60.0 70.0)
  end
  begin
     id 3 
     name ltibia
     direction 0.34202 -0.939693 0   
     length 7.02673   
     axis 0 0 20   XYZ
    dof rx
    limits (-10.0 170.0)
  end
  begin
     id 4 
     name lfoot
     direction 0.0835106 -0.229444 0.969733   
     length 2.08772   
     axis -90 7.62852e-016 20   XYZ
    dof rx rz
    limits (-45.0 90.0)
           (-70.0 20.0)
  end
  begin
     id 5 
     name ltoes
     direction 1.5358e-011 -4.21925e-011 1   
     length 1.04844   
     axis -90 7.62852e-016 20   XYZ
    dof rx
    limits (-90.0 20.0)
  end
  begin
     id 6 
     name rhipjoint
     direction -0.644959 -0.672941 0.362185   
     length 2.39812  
     axis 0 0 0  XYZ 
  end
  begin
     id 7 
     name rfemur
     direction -0.34202 -0.939693 0   
     length 6.67015   
     axis 0 0 -20   XYZ
    dof rx ry rz
    limits (-160.0 20.0)
           (-70.0 70.0)
           (-70.0 60.0)
  end
  begin
     id 8 
     name rtibia
     direction -0.34202 -0.939693 0   
     length 7.35735   
     axis 0 0 -20   XYZ
    dof rx
    limits (-10.0 170.0)
 end
 begin
     id 9 
     name rfoot
     direction -0.0670769 -0.184292 0.98058   
     length 2.25469  
     axis -90 -7.62852e-016 -20   XYZ
    dof rx rz
    limits (-45.0 90.0)
           (-20.0 70.0)
  end
  begin
     id 10 
     name rtoes
     direction -1.53575e-011 -4.21908e-011 1   
     length 1.13399   
     axis -90 -7.62852e-016 -20   XYZ
    dof rx
    limits (-90.0 20.0)
  end
  begin
     id 11 
     name lowerback
     direction -0.0188328 0.993434 -0.112847   
     length 2.27656   
     axis 0 0 0   XYZ
    dof rx ry rz
    limits (-20.0 45.0)
           (-30.0 30.0)
           (-30.0 30.0)
  end
  begin
     id 12 
     name upperback
     direction 0.00983139 0.998968 -0.04435   
     length 2.28631   
     axis 0 0 0   XYZ
    dof rx ry rz
    limits (-20.0 45.0)
           (-30.0 30.0)
           (-30.0 30.0)
  end
  begin
     id 13 
     name thorax
     direction 0.0177718 0.999807 0.00833073   
     length 2.30999   
     axis 0 0 0   XYZ
    dof rx ry rz
    limits (-20.0 45.0)
           (-30.0 30.0)
           (-30.0 30.0)
  end
  begin
     id 14 
     name lowerneck
     direction -0.0835025 0.993181 0.0813558   
     length 1.39447   
     axis 0 0 0   XYZ
    dof rx ry rz
    limits (-20.0 45.0)
           (-30.0 30.0)
           (-30.0 30.0)
  end
  begin
     id 15 
     name upperneck
     direction 0.210059 0.976535 0.0474817   
     length 1.39882   
     axis 0 0 0   XYZ
    dof rx ry rz
    limits (-20.0 45.0)
           (-30.0 30.0)
           (-30.0 30.0)
  end
  begin
     id 16
     name head
     direction 0.0780891 0.996944 -0.00207154  
     length 1.41828  
     axis 0 0 0   XYZ
    dof rx ry rz
    limits (-20.0 45.0)
           (-30.0 30.0)
           (-30.0 30.0)
  end
  begin
     id 17 
     name lclavicle
     direction 0.982414 0.166355 -0.0847829  
     length 3.57922  
     axis 0 0 0   XYZ
    dof ry rz
    limits (-20.0 10.0)
           (0.0 20.0)
  end
  begin
     id 18 
     name lhumerus
     direction 1 -4.48975e-011 5.47647e-028   
     length 4.76405   
     axis -180 -30 -90   XYZ
    dof rx ry rz
    limits (-60.0 90.0)
           (-90.0 90.0)
           (-90.0 90.0)
  end
  begin
     id 19
     name lradius
     direction 1 -4.48949e-011 -8.32142e-027   
     length 3.13759   
     axis -180 -30 -90   XYZ
    dof rx
    limits (-10.0 170.0)
  end
  begin
     id 20
     name lwrist
     direction 1 -4.48978e-011 -1.32705e-026   
     length 1.56879   
     axis 9.60836e-015 90 90   XYZ
    dof ry
    limits (-180.0 0.0)
 end
  begin
     id 21 
     name lhand
     direction 1 -4.48975e-011 -2.65409e-026   
     length 0.732262   
     axis 1.69354e-014 90 90   XYZ
    dof rx rz
    limits (-90.0 90.0)
           (-45.0 45.0)
  end
  begin
     id 22 
     name lfingers
     direction 1 -4.48923e-011 -5.30819e-026   
     length 0.590368   
     axis 3.38708e-014 90 90   XYZ
    dof rx
    limits (0.0 90.0)
  end
  begin
     id 23
     name lthumb
     direction 0.707107 -6.34914e-011 0.707107   
     length 0.847654   
     axis -90 45 2.85299e-015   XYZ
    dof rx rz
    limits (-45.0 45.0)
           (-45.0 45.0)
  end
  begin
     id 24 
     name rclavicle
     direction -0.963658 0.245183 -0.106063   
     length 3.43472  
     axis 0 0 0   XYZ 
    dof ry rz
    limits (-10.0 20.0)
           (-20.0 0.0)
  end
  begin
     id 25 
     name rhumerus
     direction -1 -4.48963e-011 -1.64784e-027  
     length 5.10161   
     axis -180 30 90   XYZ
    dof rx ry rz
    limits (-90.0 60.0)
           (-90.0 90.0)
           (-90.0 90.0)
  end
  begin
     id 26 
     name rradius
     direction -1 -4.48969e-011 -2.87943e-027   
     length 3.23267   
     axis -180 30 90   XYZ
    dof rx
    limits (-10.0 170.0)
  end
  begin
     id 27 
     name rwrist
     direction -1 -4.48982e-011 -1.32705e-026   
     length 1.61633   
     axis 9.60836e-015 -90 -90   XYZ
    dof ry
    limits (-180.0 0.0)
  end
  begin
     id 28
     name rhand
     direction -1 -4.48963e-011 -2.65409e-026   
     length 0.702   
     axis 1.69354e-014 -90 -90   XYZ
    dof rx rz
    limits (-90.0 90.0)
           (-45.0 45.0)
  end
  begin
     id 29
     name rfingers
     direction -1 -4.48934e-011 -5.30819e-026   
     length 0.565971   
     axis 3.38708e-014 -90 -90   XYZ
    dof rx
    limits (0.0 90.0)
  end
  begin
     id 30
     name rthumb
     direction -0.707107 -6.34908e-011 0.707107   
     length 0.812624   
     axis -90 -45 -2.85299e-015   XYZ
    dof rx rz
    limits (-45.0 45.0)
           (-45.0 45.0)
  end
:hierarchy
  begin
    root lhipjoint rhipjoint lowerback
    lhipjoint lfemur
    lfemur ltibia
    ltibia lfoot
    lfoot ltoes
    rhipjoint rfemur
    rfemur rtibia
    rtibia rfoot
    rfoot rtoes
    lowerback upperback
    upperback thorax
    thorax lowerneck lclavicle rclavicle
    lowerneck upperneck
    upperneck head
    lclavicle lhumerus
    lhumerus lradius
    lradius lwrist
    lwrist lhand lthumb
    lhand lfingers
    rclavicle rhumerus
    rhumerus rradius
    rradius rwrist
    rwrist rhand rthumb
    rhand rfingers
  end

#!OML:ASF \\sashay\E\basketball\basketball\Project 1\Capture day 1\Session 1\Subject.ASF
:FULLY-SPECIFIED
:DEGREES
1
root -37.6566 16.1059 0.950351 3.42853 75.5653 0.205588
lowerback 19.1749 3.171 -8.25193
upperback 10.1492 3.41794 1.08429
thorax -0.184588 1.6236 5.16827
lowerneck 0.684387 -4.19996 -12.4957
upperneck -25.2371 -2.03891 19.0946
head -7.17408 -1.10194 8.81749
rclavicle -2.35063e-014 1.72943e-014
rhumerus -17.2202 -28.1901 -64.8413
rradius 66.7109
rwrist -7.00048
rhand -23.8028 37.7915
rfingers 7.12502
rthumb 2.66779 7.82848
lclavicle -2.35063e-014 1.72943e-014
lhumerus -32.5683 -20.0323 83.1607
lradius 61.3686
lwrist 7.39741
lhand -34.8671 44.2866
lfingers 7.12502
lthumb -8.01651 74.1146
rfemur -43.445 -10.5977 20.5903
rtibia 94.6379
rfoot -15.5528 -6.80394
rtoes -28.6423
lfemur -19.0134 3.90493 -11.8629
ltibia 47.4837
lfoot -3.68549 5.52678
ltoes -29.4699
2
root -37.4353 16.216 1.06053 0.825312 74.7583 -2.13372
lowerback 18.5879 2.99392 -7.89318
upperback 10.579 3.33164 0.854669
thorax 0.619051 1.56536 4.77322
lowerneck 0.332838 -3.92524 -12.103
upperneck -25.3042 -1.50777 19.2257
head -7.23 -0.86468 8.77437
rclavicle -2.38542e-015 1.74931e-014
rhumerus -17.0932 -28.6034 -65.479
rradius 67.4506
rwrist -8.82529
rhand -22.6603 36.7632
rfingers 7.12502
rthumb 3.77115 6.81684
lclavicle -2.38542e-015 1.74931e-014
lhumerus -32.8506 -20.3063 81.3868
lradius 62.4123
lwrist 9.80443
lhand -36.1671 39.2297
lfingers 7.12502
lthumb -9.27107 69.0059
rfemur -44.101 -9.72711 21.1519
rtibia 94.6349
rfoot -16.0076 -6.05116
rtoes -24.28
lfemur -18.263 1.09679 -11.3159
ltibia 48.0657
lfoot -2.32418 8.89635
ltoes -23.2438
3
root -37.2037 16.3624 1.17437 -0.516007 74.0278 -3.32118
lowerback 16.6492 2.50653 -6.4743
upperback 11.7625 3.18162 -0.472697
thorax 3.03907 1.52696 2.71039
lowerneck 0.401953 -3.75867 -10.7066
upperneck -26.4028 -0.748633 19.9377
head -7.74655 -0.653533 8.83742
rclavicle 5.56597e-015 -1.07344e-014
rhumerus -16.2101 -30.2888 -68.083
rradius 67.986
rwrist -9.38929
rhand -22.5459 35.2335
rfingers 7.12502
rthumb 3.88159 5.28911
lclavicle 5.56597e-015 -1.07344e-014
lhumerus -31.6374 -21.4795 77.7304
lradius 63.4089
lwrist 13.1525
lhand -35.0026 37.2897
lfingers 7.12502
lthumb -8.14726 67.1127
rfemur -44.6465 -9.02785 21.4193
rtibia 94.4203
rfoot -16.3232 -5.39682
rtoes -21.0538
lfemur -17.2072 0.924759 -10.8874
ltibia 47.7976
lfoot -0.624145 9.9186
ltoes -37.2793
4
root -36.9644 16.4982 1.26583 -0.655825 74.0894 -3.51269
lowerback 18.0885 2.47995 -8.53316
upperback 10.0236 2.53335 1.22853
thorax 0.35463 1.13121 5.69265
lowerneck 1.28772 -2.94644 -12.9683
upperneck -24.741 -0.427348 19.1409
head -7.41642 -0.325662 8.87061
rclavicle 2.00773e-014 7.15625e-015
rhumerus -19.0672 -26.9119 -64.0372
rradius 68.2515
rwrist -10.0836
rhand -22.503 33.3937
rfingers 7.12502
rthumb 3.92302 3.45003
lclavicle 2.00773e-014 7.15625e-015
lhumerus -36.5273 -19.3414 80.7509
lradius 64.5318
lwrist 15.4207
lhand -33.565 37.1339
lfingers 7.12502
lthumb -6.75964 67.006
rfemur -45.5136 -9.34939 21.1228
rtibia 94.4389
rfoot -16.9525 -3.53944
rtoes -13.6837
lfemur -16.5679 0.230988 -10.9736
ltibia 47.7452
lfoot 0.62539 10.7595
ltoes -26.7276
5
root -36.7313 16.6091 1.37541 -1.54076 73.2912 -4.17367
lowerback 17.6345 2.57321 -8.39866
upperback 10.2008 2.72327 1.02362
thorax 0.760977 1.2155 5.37807
lowerneck 0.856022 -2.84909 -12.7003
upperneck -24.4643 -0.22598 19.2048
head -7.2836 -0.23411 8.80702
rclavicle 6.95746e-015 -1.43125e-014
rhumerus -19.8553 -27.9637 -63.8259
rradius 68.2599
rwrist -10.0868
rhand -22.0085 31.9162
rfingers 7.12502
rthumb 4.40058 1.98195
lclavicle 6.95746e-015 -1.43125e-014
lhumerus -37.1976 -19.9473 79.7676
lradius 65.2996
lwrist 18.5683
lhand -32.3906 36.7381
lfingers 7.12502
lthumb -5.62582 66.6434
rfemur -45.875 -8.6883 21.124
rtibia 94.0721
rfoot -17.098 -2.50146
rtoes -9.57332
lfemur -15.4485 0.508465 -10.8533
ltibia 47.712
lfoot 1.35123 11.5477
ltoes -17.0095
6
root -36.5001 16.69 1.48577 -3.73196 72.4613 -6.19836
lowerback 17.2885 2.61122 -7.51283
upperback 10.3479 2.93282 0.657882
thorax 1.09929 1.3523 4.46363
lowerneck 0.286596 -2.83989 -12.0142
upperneck -24.203 -0.0859139 19.3029
head -7.12211 -0.199339 8.67722
rclavicle 9.93923e-016 2.70347e-014
rhumerus -20.9613 -29.3584 -63.8845
rradius 68.374
rwrist -11.0855
rhand -20.952 30.6727
rfingers 7.12502
rthumb 5.42069 0.762077
lclavicle 9.93923e-016 2.70347e-014
lhumerus -37.6408 -20.8573 78.4864
lradius 65.7287
lwrist 21.1852
lhand -31.0617 37.2549
lfingers 7.12502
lthumb -4.34276 67.1904
rfemur -46.1519 -8.08167 21.8188
rtibia 93.5092
rfoot -16.9635 -3.16316
rtoes -13.2228
lfemur -14.5752 1.08515 -10.2072
ltibia 47.7653
lfoot 1.92268 11.9375
ltoes -12.5651
7
root -36.2561 16.7711 1.57888 -5.53419 72.7287 -8.20055
lowerback 16.4799 2.09945 -6.37032
upperback 10.4806 2.48621 0.443395
thorax 1.74356 1.16187 3.69602
lowerneck -0.248633 -2.75067 -11.6573
upperneck -23.9417 0.0997415 19.3037
head -6.97511 -0.109385 8.57519
rclavicle -1.47101e-014 2.10712e-014
rhumerus -21.7407 -30.3949 -63.8897
rradius 68.4462
rwrist -12.714
rhand -19.6779 29.5545
rfingers 7.12502
rthumb 6.65079 -0.321073
lclavicle -1.47101e-014 2.10712e-014
lhumerus -38.0624 -21.359 77.7565
lradius 65.5547
lwrist 22.1093
lhand -29.8534 39.9167
lfingers 7.12502
lthumb -3.17587 69.8727
rfemur -46.6487 -8.71388 22.2705
rtibia 92.9331
rfoot -16.9105 -3.37172
rtoes -14.379
lfemur -14.5536 0.674633 -9.67537
ltibia 47.8144
lfoot 2.44309 11.8209
ltoes -15.2842
8
root -36.0167 16.868 1.69407 -6.37961 72.1091 -8.65276
lowerback 16.6108 2.11088 -6.64653
upperback 10.2883 2.4303 0.639857
thorax 1.46049 1.12065 4.06012
lowerneck -0.443659 -2.48204 -11.9355
upperneck -23.2362 0.311648 19.086
head -6.75361 0.0326908 8.4954
rclavicle 1.78906e-014 1.31198e-014
rhumerus -23.0418 -30.4904 -63.0621
rradius 68.6461
rwrist -15.1321
rhand -18.5472 28.3208
rfingers 7.12502
rthumb 7.74216 -1.51747
lclavicle 1.78906e-014 1.31198e-014
lhumerus -39.1752 -20.6175 77.6883
lradius 65.515
lwrist 24.4484
lhand -32.4345 34.494
lfingers 7.12502
lthumb -5.66826 64.3982
rfemur -46.4891 -8.36427 22.2139
rtibia 92.3356
rfoot -16.7158 -3.1601
rtoes -13.3062
lfemur -13.4677 0.63847 -9.54302
ltibia 47.5761
lfoot 2.24251 11.3222
ltoes -17.7418
9
root -35.7758 16.9372 1.79893 -6.82315 72.2547 -9.18216
lowerback 16.0117 1.79207 -6.48592
upperback 10.227 2.06279 0.677442
thorax 1.74809 0.928835 4.08146
lowerneck -0.424263 -2.24376 -12.1659
upperneck -23.0921 0.604942 19.0649
head -6.76292 0.192911 8.51485
rclavicle 3.97569e-015 2.46493e-014
rhumerus -24.2361 -30.9432 -62.5276
rradius 68.971
rwrist -18.1582
rhand -17.3267 26.9771
rfingers 7.12502
rthumb 8.92009 -2.81433
lclavicle 3.97569e-015 2.46493e-014
lhumerus -40.3302 -21.023 78.3697
lradius 64.543
lwrist 23.9855
lhand -29.8327 35.8856
lfingers 7.12502
lthumb -3.15591 65.842
rfemur -46.8711 -8.82307 22.0892
rtibia 91.8288
rfoot -16.4564 -3.01545
rtoes -13.9751
lfemur -13.0386 0.179185 -9.59827
ltibia 47.0585
lfoot 2.09881 9.78194
ltoes -18.4437
